<svg xmlns="http://www.w3.org/2000/svg" viewBox="0 0 329 337.22"><defs><style>.cls-1,.cls-2,.cls-3,.cls-4{fill:none;stroke:#00a716;stroke-miterlimit:12;}.cls-1{stroke-width:20px;}.cls-2,.cls-3,.cls-4{stroke-width:41px;}.cls-3{stroke-dasharray:0 0;}.cls-4{stroke-dasharray:64.32 47.99 0 0;}</style></defs><g id="レイヤー_2" data-name="レイヤー 2"><g id="レイヤー_1-2" data-name="レイヤー 1"><path class="cls-1" d="M235,157.22l18,18a25.46,25.46,0,0,1,0,36h0a25.46,25.46,0,0,1-36,0l-18-18-54-54a25.44,25.44,0,0,1,0-36h0a25.46,25.46,0,0,1,36,0h0a25.46,25.46,0,0,1,0,36l-72,72a25.46,25.46,0,0,1-36,0h0a25.44,25.44,0,0,1,0-36h0a25.46,25.46,0,0,1,36,0l3.08,3.09A173.82,173.82,0,0,1,163,301.22h0v0h0a173.68,173.68,0,0,1,18-77"/><path class="cls-2" d="M20.5,164.5a142.71,142.71,0,0,1,3.91-33.2"/><path class="cls-3" d="M43.16,87.37h0"/><path class="cls-4" d="M43.17,87.36C68.85,47.28,113.79,20.5,164.5,20.5c67.59,0,124.94,47.59,140.09,110.81"/><path class="cls-2" d="M304.59,131.3a142.71,142.71,0,0,1,3.91,33.2"/><line class="cls-1" x1="146.67" y1="173.5" x2="169.57" y2="150.61"/></g></g></svg>